HIERARCHY
ROOT Hips
{
	OFFSET 0.000000 0.000000 0.000000
	CHANNELS 6 Xposition Yposition Zposition Xrotation Yrotation Zrotation
	JOINT Chest
	{
		OFFSET 0.000000 1.151646 10.364816
		CHANNELS 3 Xrotation Yrotation Zrotation
		JOINT Chest2
		{
			OFFSET 0.000000 -0.000000 11.517722
			CHANNELS 3 Xrotation Yrotation Zrotation
			JOINT Chest3
			{
				OFFSET 0.000000 0.000996 10.515804
				CHANNELS 3 Xrotation Yrotation Zrotation
				JOINT Chest4
				{
					OFFSET 0.000000 0.000998 10.504063
					CHANNELS 3 Xrotation Yrotation Zrotation
					JOINT Neck
					{
						OFFSET 0.000000 -0.000001 14.700996
						CHANNELS 3 Xrotation Yrotation Zrotation
						JOINT Head
						{
							OFFSET 0.000000 -0.002144 9.779655
							CHANNELS 3 Xrotation Yrotation Zrotation
							End Site
							{
								OFFSET 0.000000 0.000000 0.099998
							}
						}
					}
					JOINT RightCollar
					{
						OFFSET -3.200323 -0.000000 8.241253
						CHANNELS 3 Xrotation Yrotation Zrotation
						JOINT RightShoulder
						{
							OFFSET -14.963747 0.000000 0.000000
							CHANNELS 3 Xrotation Yrotation Zrotation
							JOINT RightElbow
							{
								OFFSET -31.975845 0.000000 0.000000
								CHANNELS 3 Xrotation Yrotation Zrotation
								JOINT RightWrist
								{
									OFFSET -26.149033 0.000000 0.000000
									CHANNELS 3 Xrotation Yrotation Zrotation
									End Site
									{
										OFFSET 0.000000 0.000000 0.099998
									}
								}
							}
						}
					}
					JOINT LeftCollar
					{
						OFFSET 3.200323 -0.000000 8.241253
						CHANNELS 3 Xrotation Yrotation Zrotation
						JOINT LeftShoulder
						{
							OFFSET 14.963747 0.000000 0.000000
							CHANNELS 3 Xrotation Yrotation Zrotation
							JOINT LeftElbow
							{
								OFFSET 31.975845 0.000000 0.000000
								CHANNELS 3 Xrotation Yrotation Zrotation
								JOINT LeftWrist
								{
									OFFSET 26.149033 0.000000 0.000000
									CHANNELS 3 Xrotation Yrotation Zrotation
									End Site
									{
										OFFSET 0.000000 0.000000 0.099998
									}
								}
							}
						}
					}
				}
			}
		}
	}
	JOINT RightHip
	{
		OFFSET -8.525852 0.000400 0.003604
		CHANNELS 3 Xrotation Yrotation Zrotation
		JOINT RightKnee
		{
			OFFSET 0.000000 0.000238 -44.087433
			CHANNELS 3 Xrotation Yrotation Zrotation
			JOINT RightAnkle
			{
				OFFSET 0.000000 0.000399 -43.085331
				CHANNELS 3 Xrotation Yrotation Zrotation
				JOINT RightToe
				{
					OFFSET 0.000000 -18.057957 -7.938347
					CHANNELS 3 Xrotation Yrotation Zrotation
					End Site
					{
						OFFSET 0.000000 0.000000 0.099998
					}
				}
			}
		}
	}
	JOINT LeftHip
	{
		OFFSET 8.525852 0.000142 0.001277
		CHANNELS 3 Xrotation Yrotation Zrotation
		JOINT LeftKnee
		{
			OFFSET 0.000000 0.000238 -44.087433
			CHANNELS 3 Xrotation Yrotation Zrotation
			JOINT LeftAnkle
			{
				OFFSET 0.000000 0.000399 -43.085323
				CHANNELS 3 Xrotation Yrotation Zrotation
				JOINT LeftToe
				{
					OFFSET 0.000000 -18.057957 -7.938347
					CHANNELS 3 Xrotation Yrotation Zrotation
					End Site
					{
						OFFSET 0.000000 0.000000 0.099998
					}
				}
			}
		}
	}
}
MOTION
Frames: 17
Frame Time: 0.004184
216.425095 -396.991272 96.833939 3.163399 1.223060 -9.529949 1.482801 -0.936644 0.304016 -5.168104 -0.428513 0.089080 0.652328 -0.428522 0.089036 6.325949 -0.313086 0.098640 16.127846 1.072121 -0.267515 -6.079770 2.048693 -0.104015 -2.866285 -7.727743 0.226817 35.055338 -71.625161 44.750033 28.651540 -0.314645 9.659081 1.169632 2.721110 -6.579516 -3.260324 7.969507 -1.428932 18.957402 74.688993 -27.000525 23.658725 4.279245 -6.772510 7.701353 -2.575777 2.829191 -0.384119 -1.523379 -2.399261 1.985503 -0.339423 0.003125 -8.868533 1.225394 9.529760 0.000001 0.000000 0.000000 -5.544005 -3.482429 2.804716 10.072811 0.257051 -0.348394 -8.098022 2.096649 -2.377034 0.000003 0.000000 0.000000 
216.434845 -397.000610 96.831573 3.159541 1.198253 -9.524794 1.478651 -0.920620 0.299258 -5.169922 -0.421201 0.087760 0.650509 -0.421210 0.087716 6.324584 -0.307727 0.097109 16.138934 1.074157 -0.267083 -6.059192 2.052233 -0.102668 -2.858883 -7.731524 0.225668 35.047705 -71.629095 44.746635 28.648931 -0.315324 9.660328 1.169194 2.720148 -6.577832 -3.248474 7.957432 -1.427325 18.994870 74.696998 -27.039303 23.661777 4.279620 -6.772953 7.703347 -2.575329 2.827701 -0.373068 -1.472917 -2.413881 1.975558 -0.375294 0.001371 -8.873116 1.231132 9.541481 0.000004 -0.000000 0.000000 -5.547908 -3.447526 2.794459 10.088232 0.251362 -0.317254 -8.105544 2.103861 -2.392952 0.000003 0.000000 0.000002 
216.444656 -397.009949 96.829193 3.155635 1.172953 -9.519784 1.474472 -0.904297 0.294459 -5.171754 -0.413756 0.086436 0.648677 -0.413766 0.086394 6.323209 -0.302270 0.095562 16.149888 1.076214 -0.266572 -6.038883 2.055785 -0.101170 -2.851548 -7.735263 0.224648 35.040158 -71.633207 44.743394 28.646338 -0.315907 9.661358 1.168748 2.719205 -6.576191 -3.236529 7.945250 -1.425707 19.032527 74.705133 -27.078319 23.664847 4.279985 -6.773416 7.705392 -2.575020 2.826226 -0.361854 -1.421670 -2.429001 1.965458 -0.411717 -0.001252 -8.878810 1.236773 9.555354 0.000001 -0.000000 0.000000 -5.551804 -3.412095 2.783932 10.103586 0.245702 -0.285095 -8.112960 2.111338 -2.409298 0.000002 0.000000 -0.000001 
216.454498 -397.019257 96.826813 3.151706 1.147406 -9.514851 1.470279 -0.887824 0.289642 -5.173591 -0.406243 0.085113 0.646840 -0.406252 0.085070 6.321831 -0.296764 0.094011 16.160759 1.078284 -0.266023 -6.018700 2.059346 -0.099595 -2.844243 -7.738978 0.223683 35.032621 -71.637387 44.740184 28.643752 -0.316437 9.662283 1.168295 2.718271 -6.574574 -3.224532 7.933013 -1.424088 19.070310 74.713329 -27.117521 23.667913 4.280350 -6.773889 7.707478 -2.574782 2.824758 -0.350550 -1.370032 -2.444385 1.955285 -0.448419 -0.004309 -8.885051 1.242368 9.570306 0.000001 0.000000 -0.000000 -5.555696 -3.376401 2.773274 10.118910 0.240061 -0.252426 -8.120311 2.118949 -2.425857 0.000002 -0.000000 0.000000 
216.464355 -397.028564 96.824417 3.147780 1.121859 -9.509916 1.466087 -0.871351 0.284825 -5.175429 -0.398731 0.083787 0.645002 -0.398740 0.083748 6.320452 -0.291257 0.092460 16.171641 1.080355 -0.265471 -5.998514 2.062912 -0.098017 -2.836939 -7.742691 0.222722 35.025084 -71.641567 44.736984 28.641177 -0.316971 9.663205 1.167848 2.717340 -6.572951 -3.212536 7.920776 -1.422459 19.108146 74.721518 -27.156757 23.670979 4.280710 -6.774360 7.709561 -2.574542 2.823291 -0.339237 -1.318398 -2.459782 1.945119 -0.485122 -0.007368 -8.891294 1.247958 9.585261 0.000000 -0.000000 -0.000000 -5.559582 -3.340703 2.762621 10.134233 0.234430 -0.219751 -8.127654 2.126562 -2.442417 0.000000 -0.000000 0.000001 
216.474167 -397.037872 96.822037 3.143880 1.096559 -9.504914 1.461912 -0.855027 0.280034 -5.177261 -0.391286 0.082467 0.643169 -0.391294 0.082427 6.319078 -0.285800 0.090915 16.182586 1.082418 -0.264957 -5.978203 2.066471 -0.096511 -2.829599 -7.746427 0.221703 35.017512 -71.645665 44.733713 28.638582 -0.317555 9.664233 1.167405 2.716394 -6.571311 -3.200588 7.908597 -1.420836 19.145924 74.729632 -27.195921 23.674045 4.281076 -6.774821 7.711611 -2.574233 2.821817 -0.327988 -1.267163 -2.474948 1.935042 -0.521552 -0.010001 -8.896981 1.253593 9.599138 0.000004 -0.000000 0.000000 -5.563468 -3.305270 2.752107 10.149590 0.228800 -0.187582 -8.135048 2.134045 -2.458763 0.000002 -0.000000 -0.000000 
216.483902 -397.047241 96.819672 3.140032 1.071750 -9.499769 1.457766 -0.838998 0.275289 -5.179080 -0.383973 0.081152 0.641351 -0.383981 0.081113 6.317713 -0.280441 0.089388 16.193673 1.084460 -0.264516 -5.957634 2.070023 -0.095150 -2.822197 -7.750204 0.220562 35.009873 -71.649613 44.730318 28.635969 -0.318234 9.665474 1.166964 2.715429 -6.569630 -3.188735 7.896529 -1.419214 19.183607 74.737610 -27.234888 23.677097 4.281455 -6.775258 7.713605 -2.573788 2.820326 -0.316887 -1.216720 -2.489643 1.925129 -0.557432 -0.011777 -8.901576 1.259321 9.610867 0.000003 0.000000 0.000000 -5.567353 -3.270364 2.741869 10.165006 0.223156 -0.156426 -8.142556 2.141265 -2.474685 0.000001 -0.000000 0.000001 
216.493561 -397.056610 96.817322 3.136262 1.047679 -9.494409 1.453665 -0.823415 0.270614 -5.180881 -0.376861 0.079846 0.639550 -0.376870 0.079808 6.316361 -0.275231 0.087880 16.204967 1.086472 -0.264187 -5.936679 2.073557 -0.094008 -2.814696 -7.754047 0.219242 35.002134 -71.653308 44.726729 28.633335 -0.319064 9.667037 1.166531 2.714434 -6.567881 -3.177028 7.884625 -1.417598 19.221107 74.745376 -27.273593 23.680139 4.281846 -6.775670 7.715523 -2.573134 2.818817 -0.306005 -1.167466 -2.503614 1.915464 -0.592486 -0.012267 -8.904498 1.265188 9.619371 -0.000001 0.000000 0.000000 -5.571242 -3.236247 2.732043 10.180517 0.217491 -0.126792 -8.150224 2.148089 -2.489968 0.000002 0.000000 -0.000000 
216.503067 -397.066010 96.815010 3.132595 1.024592 -9.488766 1.449622 -0.808428 0.266031 -5.182656 -0.370017 0.078550 0.637776 -0.370024 0.078511 6.315030 -0.270221 0.086400 16.216541 1.088443 -0.264009 -5.915206 2.077072 -0.093161 -2.807065 -7.757972 0.217680 34.994266 -71.656696 44.722883 28.630664 -0.320086 9.669026 1.166112 2.713400 -6.566046 -3.165515 7.872941 -1.415993 19.258330 74.752855 -27.311854 23.683164 4.282265 -6.776035 7.717322 -2.572205 2.817276 -0.295425 -1.119792 -2.516617 1.906127 -0.626438 -0.011034 -8.905230 1.271246 9.623569 0.000003 0.000000 0.000000 -5.575133 -3.203186 2.722766 10.196155 0.211791 -0.099190 -8.158120 2.154385 -2.504399 0.000000 0.000000 0.000000 
216.512405 -397.075470 96.812729 3.129053 1.002736 -9.482763 1.445653 -0.794184 0.261556 -5.184399 -0.363506 0.077270 0.636032 -0.363514 0.077231 6.313721 -0.265458 0.084956 16.228458 1.090363 -0.264019 -5.893085 2.080557 -0.092684 -2.799272 -7.762005 0.215818 34.986237 -71.659667 44.718724 28.627947 -0.321355 9.671555 1.165706 2.712313 -6.564105 -3.154242 7.861531 -1.414401 19.295204 74.759986 -27.349589 23.686150 4.282708 -6.776349 7.718975 -2.570931 2.815698 -0.285222 -1.074094 -2.528409 1.897194 -0.659011 -0.007650 -8.903193 1.277544 9.622392 0.000002 0.000000 0.000000 -5.579031 -3.171443 2.714172 10.211947 0.206045 -0.074123 -8.166298 2.160022 -2.517761 0.000003 -0.000000 0.000001 
216.521545 -397.084961 96.810501 3.125663 0.982356 -9.476332 1.441773 -0.780834 0.257217 -5.186105 -0.357397 0.076002 0.634328 -0.357404 0.075965 6.312441 -0.260994 0.083554 16.240790 1.092217 -0.264257 -5.870191 2.084009 -0.092647 -2.791284 -7.766161 0.213592 34.977986 -71.662167 44.714168 28.625171 -0.322920 9.674718 1.165323 2.711167 -6.562033 -3.143259 7.850453 -1.412825 19.331650 74.766720 -27.386685 23.689114 4.283185 -6.776602 7.720464 -2.569242 2.814079 -0.275476 -1.030766 -2.538740 1.888743 -0.689929 -0.001682 -8.897836 1.284127 9.614758 -0.000001 0.000000 0.000000 -5.582937 -3.141281 2.706398 10.227933 0.200243 -0.052103 -8.174814 2.164866 -2.529848 0.000000 -0.000000 0.000002 
216.530457 -397.094482 96.808304 3.122453 0.963696 -9.469398 1.437995 -0.768523 0.253034 -5.187764 -0.351754 0.074753 0.632666 -0.351762 0.074716 6.311195 -0.256877 0.082198 16.253608 1.093998 -0.264760 -5.846384 2.087419 -0.093128 -2.783070 -7.770472 0.210942 34.969476 -71.664080 44.709162 28.622335 -0.324830 9.678632 1.164957 2.709948 -6.559810 -3.132616 7.839756 -1.411269 19.367596 74.772963 -27.423011 23.692046 4.283701 -6.776783 7.721747 -2.567071 2.812405 -0.266266 -0.990203 -2.547363 1.880858 -0.718916 0.007299 -8.888620 1.291041 9.599592 0.000002 -0.000000 -0.000000 -5.586853 -3.112967 2.699580 10.244135 0.194370 -0.033638 -8.183732 2.168788 -2.540443 -0.000001 -0.000000 -0.000000 
216.539139 -397.104218 96.806168 3.119365 0.946648 -9.461780 1.434274 -0.757223 0.248900 -5.189404 -0.346560 0.073477 0.631028 -0.346568 0.073441 6.309967 -0.253096 0.080859 16.267009 1.095840 -0.265541 -5.821494 2.091036 -0.094108 -2.774505 -7.774858 0.207806 34.960310 -71.665336 44.703305 28.619408 -0.327313 9.683790 1.164658 2.708647 -6.557318 -3.122264 7.829444 -1.409709 19.404255 74.778783 -27.459778 23.695111 4.284261 -6.776731 7.722882 -2.564116 2.810734 -0.257446 -0.952108 -2.554121 1.873214 -0.746225 0.020523 -8.874213 1.298591 9.574747 0.000002 -0.000000 0.000000 -5.590731 -3.086265 2.693783 10.260683 0.188204 -0.018023 -8.193521 2.172017 -2.550287 0.000003 0.000001 0.000000 
216.547653 -397.114105 96.804062 3.116341 0.930869 -9.453440 1.430562 -0.746747 0.244725 -5.191039 -0.341730 0.072145 0.629394 -0.341738 0.072108 6.308740 -0.249591 0.079501 16.280978 1.097839 -0.266569 -5.795546 2.095026 -0.095490 -2.765549 -7.779254 0.204204 34.950112 -71.665883 44.696283 28.616379 -0.330465 9.690389 1.164425 2.707271 -6.554516 -3.112123 7.819454 -1.408128 19.442485 74.784294 -27.497882 23.698398 4.284875 -6.776354 7.723923 -2.560263 2.809106 -0.248835 -0.915870 -2.559185 1.865527 -0.772322 0.038293 -8.854381 1.306915 9.540039 0.000000 -0.000000 -0.000000 -5.594538 -3.060737 2.688904 10.277629 0.181620 -0.004256 -8.204457 2.174847 -2.560090 0.000001 0.000000 -0.000000 
216.556015 -397.124237 96.801987 3.113391 0.916265 -9.444523 1.426873 -0.737019 0.240554 -5.192663 -0.337229 0.070776 0.627768 -0.337237 0.070741 6.307523 -0.246336 0.078142 16.295416 1.099927 -0.267813 -5.768718 2.099257 -0.097241 -2.756289 -7.783688 0.200211 34.939211 -71.665883 44.688449 28.613274 -0.334128 9.698093 1.164259 2.705829 -6.551477 -3.102186 7.809754 -1.406538 19.481655 74.789492 -27.536697 23.701854 4.285529 -6.775747 7.724859 -2.555721 2.807495 -0.240466 -0.881392 -2.562794 1.857916 -0.797242 0.059670 -8.830204 1.315798 9.497311 0.000003 -0.000000 -0.000000 -5.598296 -3.036343 2.684818 10.294880 0.174739 0.007606 -8.216222 2.177235 -2.569577 -0.000000 0.000000 -0.000001 
216.564209 -397.134399 96.799942 3.110532 0.902739 -9.435174 1.423229 -0.727964 0.236428 -5.194268 -0.333029 0.069396 0.626162 -0.333035 0.069359 6.306318 -0.243304 0.076797 16.310232 1.102039 -0.269240 -5.741192 2.103594 -0.099324 -2.746813 -7.788178 0.195903 34.927890 -71.665432 44.680062 28.610102 -0.338147 9.706566 1.164125 2.704335 -6.548277 -3.092448 7.800310 -1.404947 19.521169 74.794417 -27.575690 23.705374 4.286213 -6.775008 7.725707 -2.550691 2.805881 -0.232374 -0.848587 -2.565186 1.850500 -0.821021 0.083715 -8.802729 1.325030 9.448414 -0.000001 -0.000000 -0.000000 -5.602034 -3.013043 2.681401 10.312344 0.167688 0.017498 -8.228507 2.179140 -2.578483 -0.000000 -0.000000 0.000000 
216.572281 -397.144592 96.797928 3.107775 0.890197 -9.425538 1.419644 -0.719502 0.232391 -5.195850 -0.329094 0.068026 0.624582 -0.329101 0.067991 6.305132 -0.240471 0.075481 16.325327 1.104109 -0.270817 -5.713147 2.107907 -0.101700 -2.737207 -7.792759 0.191354 34.916460 -71.664667 44.671449 28.606905 -0.342363 9.715465 1.164001 2.702798 -6.544989 -3.082904 7.791081 -1.403368 19.560376 74.799041 -27.614238 23.708869 4.286919 -6.774225 7.726429 -2.545388 2.804233 -0.224586 -0.817358 -2.566599 1.843400 -0.843694 0.109480 -8.773047 1.334402 9.395206 0.000001 0.000000 0.000000 -5.605778 -2.990800 2.678532 10.329935 0.160594 0.025361 -8.241034 2.180519 -2.586537 0.000001 0.000000 0.000001 
